<svg xmlns="http://www.w3.org/2000/svg" viewBox="0 0 400 400" id="Payment-With-Card-2--Streamline-Free-Illustrations" height="400" width="400">
  <desc>
    Payment With Card 2 Streamline Illustration: https://streamlinehq.com
  </desc>
  <g>
    <g>
      <path d="M304.21999999999997 145.6c-30.12 -23.180000000000003 -56.36000000000001 -40.2 -101.36000000000001 -62.900000000000006 -11.56 -5.84 -19.16 -4.88 -28.360000000000003 5.9 -13.100000000000001 15.4 -27 39.04 -36.4 54.379999999999995 -6.4 10.46 -4.16 20.540000000000003 4 27.54 2.58 2.22 76 49.54 79.04 51.160000000000004 0 0 -4.4799999999999995 -26.62 15.880000000000003 -33.88s48.980000000000004 22.480000000000004 48.980000000000004 22.480000000000004C301.62 184.64000000000001 323.20000000000005 160.22000000000003 304.21999999999997 145.6ZM206 110.75999999999999c0.16000000000000003 4 -5.260000000000001 1.1800000000000002 -5.0600000000000005 5.84a2.42 2.42 0 0 1 -4.82 0c-1.06 -4.82 7.540000000000001 -11.700000000000001 9.88 -5.84Zm-5.08 -9.3a2.42 2.42 0 0 1 -2.12 2.66 9.5 9.5 0 0 0 -8.6 11.38 2.42 2.42 0 0 1 -2.3600000000000003 2.92c-5.0600000000000005 -1.4800000000000002 -2.18 -9.86 0 -13.100000000000001s10.940000000000001 -9.32 13.040000000000001 -3.8600000000000003ZM178.26 98c1.74 -3.64 16.62 -12.840000000000002 19.06 -6.4a2.42 2.42 0 0 1 -2.2 2.6 17.48 17.48 0 0 0 -13 6.68 19.16 19.16 0 0 0 -3.0600000000000005 15.12 2.42 2.42 0 0 1 -2.3600000000000003 2.9000000000000004c-6.260000000000001 -2.2600000000000002 -1.58 -17.34 1.56 -20.900000000000002Zm-13.880000000000003 34.260000000000005c-1.42 -3.48 -5.0600000000000005 0 -6 -3.5600000000000005a2.4000000000000004 2.4000000000000004 0 0 1 1.8399999999999999 -2.8600000000000003 7.16 7.16 0 0 1 8.16 3.66c1.1400000000000001 1.62 1.22 1.6 2.16 1.32 3.4600000000000004 -1.06 6 -1.06 7.859999999999999 0 3.2600000000000002 1.82 3.16 5.460000000000001 4.4 8.32 0.58 0.8 2 0.24 4.44 -1.1s5.460000000000001 2.9600000000000004 2 4.4 -4.2 1.74 -6.24 1.74c-4.44 0.8 -5.36 -6.840000000000001 -6.859999999999999 -9.14 -4.7 -0.5599999999999999 -8.14 3.0600000000000005 -11.76 -2.7800000000000002Zm44.92 57.02000000000001a2.4000000000000004 2.4000000000000004 0 0 1 -3.38 0.4c-12.940000000000001 -10 -18.84 -12.280000000000001 -32.9 -22.66a2.4041630560000002 2.4041630560000002 0 0 1 2.84 -3.88c7.300000000000001 5.32 12.46 8.64 17 11.56 1.9600000000000002 2.16 19.42 10.200000000000001 16.44 14.580000000000002ZM223.84000000000003 157.08c-8 4.66 -12.980000000000002 4.28 -14.96 -4.16 -0.34 -0.42000000000000004 -6 2.8000000000000003 -7.38 1.4000000000000001 -2.8000000000000003 -1.26 -2.2800000000000002 -5.0600000000000005 -3.58 -7.040000000000001a3.7200000000000006 3.7200000000000006 0 0 0 -2.2 0.45999999999999996 2.4030813552000003 2.4030813552000003 0 0 1 -1.8399999999999999 -4.44c5.640000000000001 -2.8600000000000003 9.38 1.4400000000000002 9.82 6.28 7.440000000000001 -3.74 9.4 0 11.3 5.74 0.12 0 1.4800000000000002 0.44000000000000006 6.420000000000001 -2.42A2.42 2.42 0 0 1 223.84000000000003 157.08Zm29.28 25.74c-4 0.5 -2.8200000000000003 -7.06 -3.8200000000000003 -8.4 -4.54 3.02 -9.459999999999999 1.26 -9.340000000000002 -4.5 0 -0.9199999999999999 -0.27999999999999997 -2.66 -0.7000000000000001 -2.92 -5.760000000000001 3.66 -10.56 5.120000000000001 -10.5 -4.260000000000001a2.44 2.44 0 0 1 2.42 -2.4000000000000004c2.3800000000000003 0 2.5 2.74 2.4800000000000004 4.3 6.740000000000001 -5.24 11.16 -1.3 11.3 6.420000000000001 1.7600000000000002 -0.66 5.28 -2.6 6.859999999999999 -1.1 0.9800000000000001 -0.7200000000000001 6.18 12.040000000000001 1.3 12.86ZM282.71999999999997 168c-2.64 0 -1.8 -3.44 -2.6 -4.6000000000000005 -14.280000000000001 6.5200000000000005 -9.82 -6.440000000000001 -14.14 -7 -12 4.24 -12 3.64 -14 -8.540000000000001 -6.620000000000001 2.4600000000000004 -13 0.76 -13.06 -6.260000000000001a2.3800000000000003 2.3800000000000003 0 0 1 2.14 -2.62c2.9600000000000004 -0.6400000000000001 2.68 4.6000000000000005 3.5200000000000005 4.98s3.7600000000000002 -0.22000000000000003 6.140000000000001 -0.76c6.66 -1.4800000000000002 6.38 6.24 7.18 10.780000000000001 9.66 -3.84 12.92 -3.8200000000000003 15.580000000000002 6.28 3.1 0.22000000000000003 7.1000000000000005 -3.48 10 -0.36000000000000004C285.68 162 286.8 168 282.71999999999997 168Z" fill="#3b9cfb" stroke-width="1.6"></path>
      <path d="M124 228.42c-8 3.44 -7.38 22.680000000000003 2.8800000000000003 23.22 8.18 0.45999999999999996 20.200000000000003 -0.7200000000000001 22.94 -3 5.140000000000001 -4.34 3.58 -21.5 -4.32 -22.44A61.36000000000001 61.36000000000001 0 0 0 124 228.42Zm23.180000000000003 6c4.6000000000000005 14.96 -8.38 13.14 -20.380000000000003 12.82 -1.8800000000000001 -0.38 -3.6 -4.32 -3.7 -8.4 -0.34 -10.38 16 -7.220000000000001 22 -7.859999999999999 0.5 0.06 1.4400000000000002 1.16 2.1 3.44Z" fill="#00133c" stroke-width="1.6"></path>
      <path d="M152 284.54c-6.82 0.2 -15.14 -0.16000000000000003 -20.680000000000003 2.9600000000000004 -7.4 4 -5.68 22.200000000000003 3.3200000000000003 22.82 7.220000000000001 0.52 19.400000000000002 -0.52 23.26 -3.4200000000000004 6.620000000000001 -4.800000000000001 3.18 -22.6 -5.9 -22.36Zm3.6799999999999997 8.840000000000002c1.46 4.16 0.8400000000000001 8.540000000000001 -0.66 9.68 -1.2400000000000002 0.5 -21.8 7.5 -23.180000000000003 -2 -2.7600000000000002 -12.4 8.16 -11.22 17.34 -11.58 3.2200000000000006 -0.5 5.460000000000001 0.13999999999999999 6.540000000000001 3.9000000000000004Z" fill="#00133c" stroke-width="1.6"></path>
      <path d="M102.14 169.88a16.740000000000002 16.740000000000002 0 0 1 21.400000000000002 -2.7600000000000002c4 1.7800000000000002 4.94 -4.12 1.04 -4.9C134.66 128.88 81.24000000000001 138.6 100 165.20000000000002c-2.8200000000000003 2.8000000000000003 -0.24 6.68 2.14 4.68Zm8.14 -24.5a52.120000000000005 52.120000000000005 0 0 0 0.42000000000000004 14.5A18.76 18.76 0 0 0 104 162.38c-5.88 -6.66 -2.2 -16.84 6.28 -17Z" fill="#00133c" stroke-width="1.6"></path>
      <path d="M79.34 177.52a2.4000000000000004 2.4000000000000004 0 0 0 -3.34 0.6400000000000001c-2 4.86 5.58 6.82 9.48 7.0200000000000005 9.56 0.45999999999999996 16.12 -9.64 11.9 -11.780000000000001 -4.82 -2.44 -5.16 11.240000000000002 -18.040000000000003 4.12Z" fill="#00133c" stroke-width="1.6"></path>
      <path d="M136 133.04000000000002c-4 -5.0200000000000005 -32.580000000000005 -2.18 -45.2 -1.56 -9.14 0.52 -21.580000000000002 2.52 -43.24 4.64 -29.34 2.7800000000000002 -19.700000000000003 21.12 -14.700000000000001 52.96000000000001 2.7800000000000002 17.680000000000003 20 9.42 46.34 6.24 13.580000000000002 -1.6600000000000001 45.02 -5.420000000000001 55.86000000000001 -6.56 9.32 -0.9800000000000001 12 -11.72 7.58 -12.3 -3.34 -0.45999999999999996 -0.6400000000000001 5.78 -10.4 7.540000000000001 -26.72 4.5 -56 6.76 -84.14 10.38 -13.76 1.7600000000000002 -11.3 -12 -15.66 -36 -2.3600000000000003 -12.980000000000002 2.74 -15.76 15.740000000000002 -17.419999999999998 22.700000000000003 -2.92 34 -4.18 42.980000000000004 -4.62s35.339999999999996 -3 41.42 0.18000000000000002C135.35999999999999 138 137.88 135.46 136 133.04000000000002Z" fill="#00133c" stroke-width="1.6"></path>
      <path d="M146 255.10000000000002c-18 0.24 -30.28 7.46 -21.26 24 3.4600000000000004 6.32 31.14 0.44000000000000006 32 -6.440000000000001 1.26 -10 -1.1400000000000001 -17.680000000000003 -10.740000000000002 -17.56Zm6 17.12c-0.54 2.4000000000000004 -21.36 8.16 -23.8 3.4600000000000004 -3.3600000000000003 -6.4 -3.74 -15.180000000000001 12.540000000000001 -16.22 8.5 -0.54 13.76 1.1 11.26 12.76Z" fill="#00133c" stroke-width="1.6"></path>
      <path d="M45.74 177.32000000000002c2.9800000000000004 2.64 4.4 -4.24 12.980000000000002 -5.34a17.56 17.56 0 0 1 11.82 2.5600000000000005c4 1.7800000000000002 4.960000000000001 -4.12 1.06 -4.920000000000001 10 -33.339999999999996 -43.36000000000001 -23.6 -24.540000000000003 3 -1.46 1.08 -3.0600000000000005 3.16 -1.32 4.7Zm2.3600000000000003 -18.52c1.08 -4 5.0200000000000005 -6 9.18 -6a52.92000000000001 52.92000000000001 0 0 0 0.42000000000000004 14.5 18.86 18.86 0 0 0 -6.76 2.4800000000000004 12.700000000000001 12.700000000000001 0 0 1 -2.84 -10.98Z" fill="#00133c" stroke-width="1.6"></path>
      <path d="M87.34 258c7.7 0.32000000000000006 19.380000000000003 -2 23.040000000000003 -4 6.540000000000001 -4.86 2.22 -22 -5.48 -22 -5.44 -0.27999999999999997 -21.22 0.9199999999999999 -24.26 5.420000000000001s-1.7600000000000002 20.240000000000002 6.7 20.580000000000002Zm-2.8000000000000003 -17.84c1.26 -1.6800000000000002 13.180000000000001 -3.8600000000000003 20.12 -3.4200000000000004 4.5600000000000005 1.2800000000000002 4.38 12.340000000000002 3.4000000000000004 13.080000000000002 -2.7 1.4800000000000002 -13.4 3.6799999999999997 -20.52 3.38 -4.2 -1.02 -3.7600000000000002 -12.3 -3 -13.080000000000002Z" fill="#00133c" stroke-width="1.6"></path>
      <path d="M90.78 69.62c-9.82 -7.800000000000001 -10.98 9.440000000000001 -22.400000000000002 2.14a2.4070729112 2.4070729112 0 0 0 -2.2800000000000002 4.24C76.80000000000001 81.66000000000001 82.52000000000001 73.08 85.4 72.38s4.920000000000001 3.84 8.940000000000001 3.8200000000000003 9.28 -8.1 6.28 -9.86a2.42 2.42 0 0 0 -3.3000000000000003 0.8C93.60000000000001 72.24 93.86000000000001 72 90.78 69.62Z" fill="#00133c" stroke-width="1.6"></path>
      <path d="M56.879999999999995 54.46000000000001c6.18 10.14 13.240000000000002 7.240000000000001 16.66 -0.52 0.45999999999999996 -1.02 2 -1.06 2.92 -0.44000000000000006 6.24 4.24 10.46 3.6799999999999997 16.76 -2.8000000000000003a2.4042046502400005 2.4042046502400005 0 1 0 -3.4200000000000004 -3.38c-8.82 11.5 -12.520000000000001 -8 -20.66 4.78 -1.7600000000000002 2.72 -3.5 6.800000000000001 -8.620000000000001 -0.8400000000000001S50.42 58.24 45.82 58.24c-0.30000000000000004 0 -1.9000000000000001 -0.5599999999999999 -4 -5.88a2.2600000000000002 2.2600000000000002 0 0 0 -3.12 -1.34c-2.9800000000000004 2 1.1 11.520000000000001 6.36 12s8.520000000000001 -5.260000000000001 11.82 -8.56Z" fill="#00133c" stroke-width="1.6"></path>
      <path d="M82.54 93.22000000000001c-2.8600000000000003 0 -5.300000000000001 -0.8 -11.48 -3.88a4.64 4.64 0 0 0 -5.1000000000000005 0.54c-5.36 4.74 -8.68 6.5 -11.68 2.68 -4.14 -5.260000000000001 -4.28 6 2.7800000000000002 6.82 5.5600000000000005 0.6000000000000001 10 -5.0600000000000005 11.780000000000001 -5.32s7.56 4.960000000000001 14.380000000000003 4a12.4 12.4 0 0 0 8.6 -4.68c1.58 -2 8.840000000000002 4 10.58 1.7600000000000002 3.38 -4.260000000000001 -7.740000000000001 -6.36 -9.58 -6.48 -3.58 -0.18000000000000002 -4.44 4.46 -10.280000000000001 4.5600000000000005Z" fill="#00133c" stroke-width="1.6"></path>
      <path d="M304 181.60000000000002c-0.7200000000000001 1.1400000000000001 -1.4800000000000002 2.6 -2.8600000000000003 4.74 34.72 17.86 41.84 29.3 58.800000000000004 70.22000000000001 -22.8 49.22 -85.7 47.46000000000001 -99.74000000000001 49.300000000000004 -33 -52.7 -41.36000000000001 -90.52000000000001 -31.1 -106.68 14.8 -23.32 48.6 5.0200000000000005 61.720000000000006 21.44 2.74 3.4000000000000004 8.1 0.18000000000000002 6 -2.14 -31.200000000000003 -35.839999999999996 -56.300000000000004 -40.72 -70.38 -26s-7.740000000000001 48.6 14.719999999999999 90.60000000000001c-28.980000000000004 -1.8399999999999999 -48.46000000000001 -20.180000000000003 -52.84 -46.480000000000004 10.600000000000001 4.74 21.14 7.5200000000000005 20.680000000000003 4s-11.4 -3.58 -21.6 -10c-3.18 -18.72 2.1 -24 -2.5 -25.060000000000002 -6.440000000000001 -1.4800000000000002 -12.120000000000001 82.18 59.58 83.56 3.34 5.88 6.78 11.64 10.22 17.2 -20 9.3 -8.58 33.300000000000004 10.200000000000001 73.36a2.4000000000000004 2.4000000000000004 0 1 0 4.3 -2.12c-22.240000000000002 -45.18000000000001 -21.580000000000002 -57.82000000000001 -18.52 -62.160000000000004 4.18 -6 15.080000000000002 -3.3200000000000003 42.300000000000004 -7.740000000000001S345.8 292 362.72 262c0.18000000000000002 -1.04 26.160000000000004 54.54 27.28 37.62C354.70000000000005 251.46 363.36 207.84000000000003 304 181.60000000000002Z" fill="#00133c" stroke-width="1.6"></path>
      <path d="M96.14 315.64000000000004c7.26 0.36000000000000004 19.12 -0.8 23 -3.5600000000000005 6.440000000000001 -4.420000000000001 4.84 -22.52 -4.260000000000001 -22.700000000000003 -11.200000000000001 -0.2 -30.32 -2.32 -27.160000000000004 15.180000000000001 0.76 4.94 3.4200000000000004 10.82 8.42 11.08ZM94 296.26c10.26 -2.5 31.180000000000003 -6.82 22.32 12 -2.12 1.52 -12.16 3.1 -20 2.66 -3.3200000000000003 0.38 -5.720000000000001 -13.82 -2.32 -14.66Z" fill="#00133c" stroke-width="1.6"></path>
      <path d="M163.54000000000002 194.66c-3.5200000000000005 -0.45999999999999996 -1.1 8.940000000000001 -0.68 16.32 1.36 24 28.360000000000003 120.22000000000001 -8 118.2 -34.42 -2 -101.42000000000002 25.28 -113.46 1.4000000000000001s-10.620000000000001 -78.38 -15.4 -114.86c-3.4200000000000004 -25.480000000000004 -13.46 -76.3 -9.8 -92.26 1.7600000000000002 -7.76 11.16 -15.240000000000002 19.46 -15.740000000000002 0.4 3.12 0.68 6.300000000000001 0.86 9.540000000000001C29.360000000000003 117.75999999999999 30.400000000000002 121.44000000000001 31.78 122.30000000000001c4.98 3.1 99.28 -12.240000000000002 100 -13.52A2.32 2.32 0 0 0 133.4 106c-0.82 -2.16 -6.24 -1.02 -11.440000000000001 0 -0.45999999999999996 -3.34 -0.9800000000000001 -6.720000000000001 -1.6 -10.120000000000001C140.98 94 144.3 100 150.8 108.9c1.72 2.34 5.58 0 4.46 -2.32C148 91.64 136 89.54 119.48 91c-4.4 -23.040000000000003 -9.020000000000001 -45.52 -12.8 -69.5 -0.66 -4.24 -7.06 5.260000000000001 -10.56 5.04 -2 -0.13999999999999999 -4 -2.54 -6.68 -6 -4.3 -5.420000000000001 -8.26 7.2 -15.180000000000001 7.6000000000000005 -3.2200000000000006 0.2 -9.86 -10.8 -12.780000000000001 -5.720000000000001 -7.300000000000001 12.58 -8.58 12.700000000000001 -15.66 5.620000000000001 -4.720000000000001 -4.78 -6.48 8.56 -12.18 7.859999999999999 -4 -0.5 -4.68 -4 -6.78 -2.68 -9.72 6 6 46 8 69.72000000000001C21.680000000000003 106.52000000000001 12 111.4 10.48 124.4c-2.7800000000000002 22.540000000000003 7.5200000000000005 69.16000000000001 9.68 92.92000000000002 3.48 37.28 7.4 102.38 17.5 117.74000000000001 17.540000000000003 26.660000000000004 82.12 -2.32 117.60000000000001 -1.08 43.02 1.5 16 -91.46000000000001 12.36 -123.64000000000001 -1.22 -10.9 0.38 -15.12 -4.08 -15.680000000000001ZM28.480000000000004 39.2c5.5200000000000005 3.48 11.86 2.5 15.700000000000001 -5.2 8.540000000000001 7.720000000000001 15.02 4 20 -6.46 9.120000000000001 10.420000000000002 15.200000000000001 6.36 22.380000000000003 -2.4800000000000004 5.5 8 9.26 10 16 3.38 2.9800000000000004 26.12 11.240000000000002 52.800000000000004 14.719999999999999 78.34 -21.62 4 -49.52 7.220000000000001 -76 10 -1.92 -30.78 -14.02 -58.160000000000004 -12.8 -77.58Z" fill="#00133c" stroke-width="1.6"></path>
      <path d="M137.6 196.9c-19.78 0.30000000000000004 -30.980000000000004 5.86 -20.52 24.380000000000003 9.82 5.32 32.62 -0.12 31.3 -6.88 0.66 -10.56 -1.1400000000000001 -17.64 -10.780000000000001 -17.5Zm6 17.12c-0.22000000000000003 2.7600000000000002 -8 3.8200000000000003 -19.680000000000003 4.54 -5.74 0.4 -5.1000000000000005 -4.36 -5.54 -10 -2.16 -6 11.420000000000002 -6.16 19.700000000000003 -6.88 5.920000000000001 0.32000000000000006 5.5600000000000005 3.04 5.5 12.32Z" fill="#00133c" stroke-width="1.6"></path>
      <path d="M42 233.34000000000003c10.8 1.5 30.580000000000002 2.4800000000000004 28.260000000000005 -14.4 -0.68 -4.88 -3.02 -10.8 -8 -11.3 -9.620000000000001 0 -26.439999999999998 -1.16 -26.380000000000003 13.080000000000002 -0.2 4.86 1.6800000000000002 10.86 6.120000000000001 12.620000000000001Zm1.2800000000000002 -18.540000000000003c7.800000000000001 -1.42 21.02 -8 22.200000000000003 4.7 0.44000000000000006 3.66 -0.4 6.940000000000001 -1.8800000000000001 7.46 -6.98 2.44 -17.28 2.92 -19.8 2 -3.44 -0.96 -4.66 -12.780000000000001 -0.6200000000000001 -14.16Z" fill="#00133c" stroke-width="1.6"></path>
      <path d="M85.44 228.86a68.86 68.86 0 0 0 18.419999999999998 -3.14c8.78 -2.8200000000000003 6.140000000000001 -22.840000000000003 -2.3800000000000003 -23.200000000000003 -7.420000000000001 0.36000000000000004 -28 -2 -27.78 11.780000000000001 0.04000000000000001 7.58 3.7600000000000002 15.36 11.740000000000002 14.56Zm-6.940000000000001 -14.480000000000002c0 -0.9199999999999999 0.22000000000000003 -4 2 -4.58 5.54 -2 22.700000000000003 -8.24 24 4 0.4 3.6 -0.5 6.920000000000001 -2 7.420000000000001 -13 2.7800000000000002 -24 7.640000000000001 -24 -6.840000000000001Z" fill="#00133c" stroke-width="1.6"></path>
      <path d="M74.74 253.68000000000004c0 -6 -0.7200000000000001 -11.780000000000001 -3.66 -14.5 -3.2200000000000006 -3.58 -13.240000000000002 -1.62 -18 -1.36 -17.740000000000002 0.9800000000000001 -15.4 14.14 -8.68 23.76 8.66 4.1000000000000005 30.3 -1.1800000000000002 30.34 -7.9Zm-18.16 -11.36c8.98 -2 14.780000000000001 -0.8800000000000001 13.36 11.06 -0.13999999999999999 2.3600000000000003 -3.04 4.260000000000001 -18.12 5.5 -5.82 0.5 -6.68 -3.28 -7.300000000000001 -9.82 -0.52 -4.88 1.32 -5.44 12.06 -6.740000000000001Z" fill="#00133c" stroke-width="1.6"></path>
      <path d="M87.4 286c6.46 1.34 18.82 -0.13999999999999999 24 -1.54 7.82 -2.1 7.32 -22.480000000000004 -1.54 -22.86s-30.12 -2 -27.460000000000004 14.380000000000003c0.30000000000000004 4.0200000000000005 1.82 9 5 10.020000000000001Zm-0.26 -13.36c0.9400000000000001 -8.26 15.740000000000002 -6 22.240000000000002 -6.24 3.74 0.5 2.9000000000000004 13.480000000000002 0.58 13.46 -5.140000000000001 1.54 -17.900000000000002 2.3000000000000003 -21.040000000000003 1.56a13.880000000000003 13.880000000000003 0 0 1 -1.7800000000000002 -8.88Z" fill="#00133c" stroke-width="1.6"></path>
      <path d="M58.92000000000001 321c22.240000000000002 -0.9 27.480000000000004 -2.32 22.82 -21.060000000000002 -2.2800000000000002 -9.16 -29.480000000000004 -5.0600000000000005 -32.300000000000004 1.42s-1.7800000000000002 20.1 9.48 19.64Zm-5.300000000000001 -17.26c3.12 -4.6000000000000005 15.780000000000001 -5.0200000000000005 19.200000000000003 -5.0600000000000005 5.7 0 7.140000000000001 11.4 5.36 13.52 -4.88 5.800000000000001 -23.700000000000003 5.08 -24.26 2.44 -0.7000000000000001 -3.3600000000000003 -2.16 -8.16 -0.30000000000000004 -10.9Z" fill="#00133c" stroke-width="1.6"></path>
      <path d="M49.74 292.16c4.32 2.44 31.52 -0.38 28.6 -14.32 -1.06 -5.08 -0.8800000000000001 -11.64 -7.76 -12 -7.28 -0.36000000000000004 -26.400000000000002 -1.1199999999999999 -26.62 11.66 -0.24 5.58 2.2600000000000002 12.66 5.78 14.66Zm-0.96 -14.9c1.3800000000000001 -7.76 16.76 -6.420000000000001 21.200000000000003 -6.640000000000001 2.66 -0.32000000000000006 5.5600000000000005 13.42 1.8800000000000001 14.540000000000001 -13.700000000000001 3.08 -23.5 8.24 -23.080000000000002 -7.9Z" fill="#00133c" stroke-width="1.6"></path>
    </g>
  </g>
</svg>